<?xml version="1.0" encoding="UTF-8"?>
<svg xmlns="http://www.w3.org/2000/svg"
     xmlns:xlink="http://www.w3.org/1999/xlink"
     xmlns:gadfly="http://www.gadflyjl.org/ns"
     version="1.2"
     width="141.42mm" height="100mm" viewBox="0 0 141.42 100"
     stroke="none"
     fill="#000000"
     stroke-width="0.3"
     font-size="3.88"
>
<defs>
  <marker id="arrow" markerWidth="15" markerHeight="7" refX="5" refY="3.5" orient="auto" markerUnits="strokeWidth">
    <path d="M0,0 L15,3.5 L0,7 z" stroke="context-stroke" fill="context-stroke"/>
  </marker>
</defs>
<g class="plotroot xscalable yscalable" id="img-7d1b62b2-1">
  <g font-size="3.88" font-family="'PT Sans','Helvetica Neue','Helvetica',sans-serif" fill="#564A55" stroke="#000000" stroke-opacity="0.000" id="img-7d1b62b2-2">
    <g transform="translate(76.91,88.39)">
      <g class="primitive">
        <text text-anchor="middle" dy="0.6em">Real axis</text>
      </g>
    </g>
  </g>
  <g class="guide xlabels" font-size="2.82" font-family="'PT Sans Caption','Helvetica Neue','Helvetica',sans-serif" fill="#6C606B" id="img-7d1b62b2-3">
    <g transform="translate(43.86,81.72)">
      <g class="primitive">
        <text text-anchor="middle" dy="0.6em">-3</text>
      </g>
    </g>
    <g transform="translate(52.12,81.72)">
      <g class="primitive">
        <text text-anchor="middle" dy="0.6em">-2</text>
      </g>
    </g>
    <g transform="translate(60.38,81.72)">
      <g class="primitive">
        <text text-anchor="middle" dy="0.6em">-1</text>
      </g>
    </g>
    <g transform="translate(68.65,81.72)">
      <g class="primitive">
        <text text-anchor="middle" dy="0.6em">0</text>
      </g>
    </g>
    <g transform="translate(76.91,81.72)">
      <g class="primitive">
        <text text-anchor="middle" dy="0.6em">1</text>
      </g>
    </g>
    <g transform="translate(85.17,81.72)">
      <g class="primitive">
        <text text-anchor="middle" dy="0.6em">2</text>
      </g>
    </g>
    <g transform="translate(93.44,81.72)">
      <g class="primitive">
        <text text-anchor="middle" dy="0.6em">3</text>
      </g>
    </g>
    <g transform="translate(101.7,81.72)">
      <g class="primitive">
        <text text-anchor="middle" dy="0.6em">4</text>
      </g>
    </g>
    <g transform="translate(109.96,81.72)">
      <g class="primitive">
        <text text-anchor="middle" dy="0.6em">5</text>
      </g>
    </g>
  </g>
  <g clip-path="url(#img-7d1b62b2-4)">
    <g id="img-7d1b62b2-5">
      <g pointer-events="visible" stroke-width="0.3" fill="#000000" fill-opacity="0.000" stroke="#000000" stroke-opacity="0.000" class="guide background" id="img-7d1b62b2-6">
        <g transform="translate(76.91,45.66)" id="img-7d1b62b2-7">
          <path d="M-35.05,-35.05 L35.05,-35.05 35.05,35.05 -35.05,35.05  z" class="primitive"/>
        </g>
      </g>
      <g class="guide ygridlines xfixed" stroke-dasharray="0.5,0.5" stroke-width="0.2" stroke="#D0D0E0" id="img-7d1b62b2-8">
        <g transform="translate(76.91,78.72)" id="img-7d1b62b2-9">
          <path fill="none" d="M-35.05,0 L35.05,0 " class="primitive"/>
        </g>
        <g transform="translate(76.91,70.45)" id="img-7d1b62b2-10">
          <path fill="none" d="M-35.05,0 L35.05,0 " class="primitive"/>
        </g>
        <g transform="translate(76.91,62.19)" id="img-7d1b62b2-11">
          <path fill="none" d="M-35.05,0 L35.05,0 " class="primitive"/>
        </g>
        <g transform="translate(76.91,53.93)" id="img-7d1b62b2-12">
          <path fill="none" d="M-35.05,0 L35.05,0 " class="primitive"/>
        </g>
        <g transform="translate(76.91,45.66)" id="img-7d1b62b2-13">
          <path fill="none" d="M-35.05,0 L35.05,0 " class="primitive"/>
        </g>
        <g transform="translate(76.91,37.4)" id="img-7d1b62b2-14">
          <path fill="none" d="M-35.05,0 L35.05,0 " class="primitive"/>
        </g>
        <g transform="translate(76.91,29.14)" id="img-7d1b62b2-15">
          <path fill="none" d="M-35.05,0 L35.05,0 " class="primitive"/>
        </g>
        <g transform="translate(76.91,20.87)" id="img-7d1b62b2-16">
          <path fill="none" d="M-35.05,0 L35.05,0 " class="primitive"/>
        </g>
        <g transform="translate(76.91,12.61)" id="img-7d1b62b2-17">
          <path fill="none" d="M-35.05,0 L35.05,0 " class="primitive"/>
        </g>
      </g>
      <g class="guide xgridlines yfixed" stroke-dasharray="0.5,0.5" stroke-width="0.2" stroke="#D0D0E0" id="img-7d1b62b2-18">
        <g transform="translate(43.86,45.66)" id="img-7d1b62b2-19">
          <path fill="none" d="M0,-35.05 L0,35.05 " class="primitive"/>
        </g>
        <g transform="translate(52.12,45.66)" id="img-7d1b62b2-20">
          <path fill="none" d="M0,-35.05 L0,35.05 " class="primitive"/>
        </g>
        <g transform="translate(60.38,45.66)" id="img-7d1b62b2-21">
          <path fill="none" d="M0,-35.05 L0,35.05 " class="primitive"/>
        </g>
        <g transform="translate(68.65,45.66)" id="img-7d1b62b2-22">
          <path fill="none" d="M0,-35.05 L0,35.05 " class="primitive"/>
        </g>
        <g transform="translate(76.91,45.66)" id="img-7d1b62b2-23">
          <path fill="none" d="M0,-35.05 L0,35.05 " class="primitive"/>
        </g>
        <g transform="translate(85.17,45.66)" id="img-7d1b62b2-24">
          <path fill="none" d="M0,-35.05 L0,35.05 " class="primitive"/>
        </g>
        <g transform="translate(93.44,45.66)" id="img-7d1b62b2-25">
          <path fill="none" d="M0,-35.05 L0,35.05 " class="primitive"/>
        </g>
        <g transform="translate(101.7,45.66)" id="img-7d1b62b2-26">
          <path fill="none" d="M0,-35.05 L0,35.05 " class="primitive"/>
        </g>
        <g transform="translate(109.96,45.66)" id="img-7d1b62b2-27">
          <path fill="none" d="M0,-35.05 L0,35.05 " class="primitive"/>
        </g>
      </g>
      <g class="plotpanel" id="img-7d1b62b2-28">
        <metadata>
          <boundingbox value="41.858178118654756mm 10.611666666666665mm 70.10333333333334mm 70.10333333333334mm"/>
          <unitbox value="-3.2420452826382937 5.242045282638293 8.484090565276587 -8.484090565276587"/>
        </metadata>
        <g class="geometry" id="img-7d1b62b2-29">
          <g stroke-width="0.3" id="img-7d1b62b2-30">
            <g class="color_RGBA{Float32}(0.0f0,0.74736935f0,1.0f0,1.0f0)" fill-opacity="1" stroke="#FFFFFF" fill="#00BFFF" id="img-7d1b62b2-31">
              <g class="marker" id="img-7d1b62b2-32">
                <g transform="translate(98.39,26.66)" id="img-7d1b62b2-33">
                  <circle cx="0" cy="0" r="0.9" class="primitive"/>
                </g>
              </g>
            </g>
            <g class="color_RGBA{Float32}(0.0f0,0.74736935f0,1.0f0,1.0f0)" fill-opacity="1" stroke="#FFFFFF" fill="#00BFFF" id="img-7d1b62b2-34">
              <g class="marker" id="img-7d1b62b2-35">
                <g transform="translate(48.4,41.44)" id="img-7d1b62b2-36">
                  <circle cx="0" cy="0" r="0.9" class="primitive"/>
                </g>
              </g>
            </g>
            <g class="color_RGBA{Float32}(0.0f0,0.74736935f0,1.0f0,1.0f0)" fill-opacity="1" stroke="#FFFFFF" fill="#00BFFF" id="img-7d1b62b2-37">
              <g class="marker" id="img-7d1b62b2-38">
                <g transform="translate(64.82,67.41)" id="img-7d1b62b2-39">
                  <circle cx="0" cy="0" r="0.9" class="primitive"/>
                </g>
              </g>
            </g>
          </g>
        </g>
        <g stroke-width="0.3" fill="#000000" fill-opacity="0.000" class="geometry" id="img-7d1b62b2-40">
          <g class="color_RGB{N0f8}(0.502,0.0,0.502)" stroke-dasharray="none" stroke="#800080" id="img-7d1b62b2-41">
            <g transform="translate(61.27,42.7)" id="img-7d1b62b2-42">
              <path fill="none" d="M3.56,24.72 L2.47,24.68 1.36,24.56 0.25,24.35 -0.88,24.06 -2,23.67 -3.11,23.2 -4.21,22.63 -5.28,21.97 -6.33,21.21 -7.33,20.37 -8.3,19.43 -9.21,18.4 -10.05,17.28 -10.83,16.08 -11.54,14.79 -12.16,13.43 -12.69,12 -13.12,10.5 -13.45,8.94 -13.66,7.33 -13.76,5.67 -13.73,3.98 -13.58,2.25 -13.29,0.5 -12.86,-1.26 -12.3,-3.01 -11.59,-4.76 -10.74,-6.49 -9.74,-8.19 -8.59,-9.84 -7.3,-11.43 -5.87,-12.96 -4.29,-14.41 -2.57,-15.77 -0.72,-17.02 1.26,-18.15 3.36,-19.16 5.57,-20.03 7.9,-20.75 10.32,-21.3 12.82,-21.68 15.41,-21.89 18.05,-21.9 20.75,-21.71 23.48,-21.31 26.23,-20.7 28.99,-19.87 31.74,-18.82 34.45,-17.55 37.13,-16.04 " class="primitive"/>
            </g>
          </g>
        </g>
        <g class="geometry" id="img-7d1b62b2-43">
          <g stroke-width="0.3" id="img-7d1b62b2-44">
            <g class="color_RGBA{Float32}(0.0f0,0.74736935f0,1.0f0,1.0f0)" fill-opacity="1" stroke="#FFFFFF" fill="#00BFFF" id="img-7d1b62b2-45">
              <g class="marker" id="img-7d1b62b2-46">
                <g transform="translate(98.39,26.66)" id="img-7d1b62b2-47">
                  <circle cx="0" cy="0" r="0.9" class="primitive"/>
                </g>
              </g>
            </g>
            <g class="color_RGBA{Float32}(0.0f0,0.74736935f0,1.0f0,1.0f0)" fill-opacity="1" stroke="#FFFFFF" fill="#00BFFF" id="img-7d1b62b2-48">
              <g class="marker" id="img-7d1b62b2-49">
                <g transform="translate(67.96,77.7)" id="img-7d1b62b2-50">
                  <circle cx="0" cy="0" r="0.9" class="primitive"/>
                </g>
              </g>
            </g>
            <g class="color_RGBA{Float32}(0.0f0,0.74736935f0,1.0f0,1.0f0)" fill-opacity="1" stroke="#FFFFFF" fill="#00BFFF" id="img-7d1b62b2-51">
              <g class="marker" id="img-7d1b62b2-52">
                <g transform="translate(58.88,43.87)" id="img-7d1b62b2-53">
                  <circle cx="0" cy="0" r="0.9" class="primitive"/>
                </g>
              </g>
            </g>
          </g>
        </g>
        <g stroke-width="0.3" fill="#000000" fill-opacity="0.000" class="geometry" id="img-7d1b62b2-54">
          <g class="color_RGB{N0f8}(0.502,0.0,0.502)" stroke-dasharray="none" stroke="#800080" id="img-7d1b62b2-55">
            <g transform="translate(74.05,60.65)" id="img-7d1b62b2-56">
              <path fill="none" d="M-15.17,-16.78 L-16.29,-16.02 -17.37,-15.13 -18.37,-14.13 -19.3,-13.02 -20.13,-11.8 -20.87,-10.47 -21.49,-9.06 -21.98,-7.56 -22.34,-5.99 -22.56,-4.36 -22.62,-2.68 -22.53,-0.97 -22.27,0.76 -21.84,2.5 -21.23,4.23 -20.45,5.93 -19.5,7.58 -18.37,9.17 -17.07,10.67 -15.61,12.08 -13.98,13.38 -12.21,14.53 -10.29,15.54 -8.25,16.39 -6.09,17.05 -3.83,17.52 -1.49,17.78 0.92,17.82 3.37,17.63 5.85,17.2 8.32,16.53 10.77,15.61 13.18,14.45 15.52,13.03 17.76,11.36 19.88,9.46 21.85,7.32 23.65,4.95 25.26,2.37 26.65,-0.4 27.79,-3.36 28.67,-6.47 29.27,-9.72 29.57,-13.09 29.55,-16.53 29.21,-20.04 28.52,-23.57 27.48,-27.09 26.09,-30.58 24.35,-33.99 " class="primitive"/>
            </g>
          </g>
        </g>
        <g class="geometry" id="img-7d1b62b2-57">
          <g stroke-width="0.3" id="img-7d1b62b2-58">
            <g class="color_RGBA{Float32}(0.0f0,0.74736935f0,1.0f0,1.0f0)" fill-opacity="1" stroke="#FFFFFF" fill="#00BFFF" id="img-7d1b62b2-59">
              <g class="marker" id="img-7d1b62b2-60">
                <g transform="translate(98.39,26.66)" id="img-7d1b62b2-61">
                  <circle cx="0" cy="0" r="0.9" class="primitive"/>
                </g>
              </g>
            </g>
            <g class="color_RGBA{Float32}(0.0f0,0.74736935f0,1.0f0,1.0f0)" fill-opacity="1" stroke="#FFFFFF" fill="#00BFFF" id="img-7d1b62b2-62">
              <g class="marker" id="img-7d1b62b2-63">
                <g transform="translate(89.58,42.64)" id="img-7d1b62b2-64">
                  <circle cx="0" cy="0" r="0.9" class="primitive"/>
                </g>
              </g>
            </g>
            <g class="color_RGBA{Float32}(0.0f0,0.74736935f0,1.0f0,1.0f0)" fill-opacity="1" stroke="#FFFFFF" fill="#00BFFF" id="img-7d1b62b2-65">
              <g class="marker" id="img-7d1b62b2-66">
                <g transform="translate(82.24,50.49)" id="img-7d1b62b2-67">
                  <circle cx="0" cy="0" r="0.9" class="primitive"/>
                </g>
              </g>
            </g>
          </g>
        </g>
        <g stroke-width="0.3" fill="#000000" fill-opacity="0.000" class="geometry" id="img-7d1b62b2-68">
          <g class="color_RGB{N0f8}(0.502,0.0,0.502)" stroke-dasharray="none" stroke="#800080" id="img-7d1b62b2-69">
            <g transform="translate(89.85,41.24)" id="img-7d1b62b2-70">
              <path fill="none" d="M-7.61,9.25 L-7.35,9.04 -7.09,8.83 -6.83,8.6 -6.57,8.37 -6.3,8.13 -6.03,7.88 -5.75,7.63 -5.47,7.36 -5.19,7.09 -4.91,6.81 -4.62,6.52 -4.33,6.22 -4.03,5.91 -3.74,5.59 -3.43,5.27 -3.13,4.93 -2.82,4.58 -2.51,4.22 -2.2,3.85 -1.89,3.47 -1.57,3.08 -1.25,2.68 -0.92,2.26 -0.59,1.83 -0.26,1.4 0.07,0.94 0.4,0.48 0.74,-0 1.08,-0.49 1.42,-1 1.76,-1.52 2.11,-2.05 2.46,-2.6 2.81,-3.17 3.16,-3.75 3.51,-4.35 3.87,-4.96 4.22,-5.59 4.58,-6.23 4.94,-6.9 5.3,-7.58 5.66,-8.28 6.02,-9 6.38,-9.74 6.74,-10.49 7.11,-11.27 7.47,-12.07 7.83,-12.88 8.19,-13.72 8.55,-14.58 " class="primitive"/>
            </g>
          </g>
        </g>
      </g>
    </g>
  </g>
  <g class="guide ylabels" font-size="2.82" font-family="'PT Sans Caption','Helvetica Neue','Helvetica',sans-serif" fill="#6C606B" id="img-7d1b62b2-71">
    <g transform="translate(40.86,78.72)" id="img-7d1b62b2-72">
      <g class="primitive">
        <text text-anchor="end" dy="0.35em">-3</text>
      </g>
    </g>
    <g transform="translate(40.86,70.45)" id="img-7d1b62b2-73">
      <g class="primitive">
        <text text-anchor="end" dy="0.35em">-2</text>
      </g>
    </g>
    <g transform="translate(40.86,62.19)" id="img-7d1b62b2-74">
      <g class="primitive">
        <text text-anchor="end" dy="0.35em">-1</text>
      </g>
    </g>
    <g transform="translate(40.86,53.93)" id="img-7d1b62b2-75">
      <g class="primitive">
        <text text-anchor="end" dy="0.35em">0</text>
      </g>
    </g>
    <g transform="translate(40.86,45.66)" id="img-7d1b62b2-76">
      <g class="primitive">
        <text text-anchor="end" dy="0.35em">1</text>
      </g>
    </g>
    <g transform="translate(40.86,37.4)" id="img-7d1b62b2-77">
      <g class="primitive">
        <text text-anchor="end" dy="0.35em">2</text>
      </g>
    </g>
    <g transform="translate(40.86,29.14)" id="img-7d1b62b2-78">
      <g class="primitive">
        <text text-anchor="end" dy="0.35em">3</text>
      </g>
    </g>
    <g transform="translate(40.86,20.87)" id="img-7d1b62b2-79">
      <g class="primitive">
        <text text-anchor="end" dy="0.35em">4</text>
      </g>
    </g>
    <g transform="translate(40.86,12.61)" id="img-7d1b62b2-80">
      <g class="primitive">
        <text text-anchor="end" dy="0.35em">5</text>
      </g>
    </g>
  </g>
  <g font-size="3.88" font-family="'PT Sans','Helvetica Neue','Helvetica',sans-serif" fill="#564A55" stroke="#000000" stroke-opacity="0.000" id="img-7d1b62b2-81">
    <g transform="translate(33.27,43.66)" id="img-7d1b62b2-82">
      <g class="primitive">
        <text text-anchor="middle" dy="0.35em" transform="rotate(-90,0, 2)">Imaginary axis</text>
      </g>
    </g>
  </g>
  <g font-size="3.88" font-family="'PT Sans','Helvetica Neue','Helvetica',sans-serif" fill="#564A55" stroke="#000000" stroke-opacity="0.000" id="img-7d1b62b2-83">
    <g transform="translate(76.91,5)" id="img-7d1b62b2-84">
      <g class="primitive">
        <text text-anchor="middle" dy="0.6em">Complex roots</text>
      </g>
    </g>
  </g>
</g>
<defs>
  <clipPath id="img-7d1b62b2-4">
    <path d="M41.86,10.61 L111.96,10.61 111.96,80.72 41.86,80.72 " />
  </clipPath>
</defs>
</svg>
